<?xml version="1.0" encoding="UTF-8" standalone="no"?>
<svg
   version="1.0"
   width="1024.000000pt"
   height="1024.000000pt"
   viewBox="0 0 1024.000000 1024.000000"
   preserveAspectRatio="xMidYMid meet"
   id="svg138"
   sodipodi:docname="logo.svg"
   inkscape:version="1.3.2 (091e20e, 2023-11-25)"
   xmlns:inkscape="http://www.inkscape.org/namespaces/inkscape"
   xmlns:sodipodi="http://sodipodi.sourceforge.net/DTD/sodipodi-0.dtd"
   xmlns="http://www.w3.org/2000/svg"
   xmlns:svg="http://www.w3.org/2000/svg">
  <defs
     id="defs138" />
  <sodipodi:namedview
     id="namedview138"
     pagecolor="#ffffff"
     bordercolor="#000000"
     borderopacity="0.25"
     inkscape:showpageshadow="2"
     inkscape:pageopacity="0.0"
     inkscape:pagecheckerboard="0"
     inkscape:deskcolor="#d1d1d1"
     inkscape:document-units="pt"
     inkscape:zoom="0.48889805"
     inkscape:cx="435.67365"
     inkscape:cy="670.89652"
     inkscape:window-width="1680"
     inkscape:window-height="997"
     inkscape:window-x="0"
     inkscape:window-y="925"
     inkscape:window-maximized="1"
     inkscape:current-layer="svg138" />
  <rect
     style="opacity:1;fill:#1b1b1f;fill-opacity:1;stroke-width:0.747946;paint-order:stroke markers fill"
     id="rect138"
     width="1025"
     height="1025.0005"
     x="-2.220446e-16"
     y="-2.220446e-16"
     ry="215.70906"
     inkscape:label="rect138" />
  <g
     transform="matrix(0.1,0,0,-0.1,0,1024)"
     fill="#000000"
     stroke="none"
     id="g138"
     style="opacity:1;fill:#ffffff;fill-opacity:1"
     inkscape:label="g138">
    <path
       d="m 6092,9599 c -348,-100 -639,-447 -788,-937 -76,-253 -110,-458 -119,-725 -2,-65 -5,-120 -7,-122 -1,-1 -115,-87 -253,-190 -517,-388 -818,-666 -1089,-1005 -247,-309 -422,-639 -515,-969 -62,-218 -82,-356 -86,-581 -6,-291 22,-483 102,-715 129,-373 412,-763 728,-1003 127,-96 221,-153 387,-235 320,-156 569,-211 966,-212 270,0 256,-8 246,130 -4,60 -11,94 -21,101 -9,8 -75,12 -201,12 -252,0 -418,28 -635,106 -538,195 -899,628 -956,1148 -35,317 21,603 179,913 132,258 290,459 604,768 221,217 618,558 633,544 6,-7 32,-138 32,-169 1,-16 -10,-18 -92,-18 -62,0 -99,-4 -112,-13 -36,-27 -7,-37 105,-37 121,0 113,5 125,-80 4,-25 22,-133 40,-240 18,-107 35,-214 38,-236 l 5,-41 -102,-27 c -116,-31 -283,-110 -406,-191 -105,-70 -267,-233 -338,-340 -82,-124 -147,-266 -178,-389 -48,-199 -35,-438 36,-624 98,-254 312,-474 533,-544 83,-26 293,-36 321,-15 22,16 14,37 -14,37 -72,0 -219,95 -287,184 -84,112 -119,235 -109,391 15,267 169,493 428,629 73,39 242,96 252,85 4,-5 82,-478 151,-919 30,-195 71,-456 91,-580 20,-124 51,-324 70,-445 18,-121 52,-332 74,-470 44,-269 95,-595 104,-660 3,-22 10,-71 16,-110 26,-179 48,-377 49,-445 6,-288 -146,-510 -404,-594 -59,-19 -165,-29 -217,-20 l -36,5 47,62 c 93,123 127,231 118,377 -13,217 -127,388 -317,477 -100,47 -244,62 -353,37 -334,-77 -521,-445 -396,-779 26,-71 103,-187 165,-250 293,-299 936,-340 1312,-84 62,43 177,153 212,205 71,102 129,254 150,389 13,83 16,272 5,360 -16,131 -48,354 -70,490 -14,83 -34,211 -45,285 -12,74 -25,155 -30,180 -5,25 -44,266 -85,535 -78,504 -95,611 -190,1210 -78,484 -115,738 -109,744 10,10 152,-32 228,-68 196,-93 342,-240 431,-434 69,-150 96,-308 84,-492 -7,-121 -29,-211 -79,-328 -47,-108 -95,-181 -182,-272 -76,-79 -76,-78 -49,-200 15,-69 21,-81 43,-89 22,-8 37,-1 103,45 93,64 267,228 340,319 293,369 398,834 289,1278 -49,199 -126,356 -262,537 -227,302 -606,502 -989,522 -82,5 -103,9 -107,22 -5,17 -76,454 -126,776 -17,110 -33,214 -36,232 -4,29 0,36 63,86 172,139 204,165 298,246 619,531 876,965 936,1582 38,402 -78,686 -331,807 -47,22 -109,45 -138,51 -77,16 -207,12 -280,-10 z m 289,-314 c 109,-57 154,-175 111,-296 -32,-90 -95,-174 -246,-325 -158,-158 -271,-254 -546,-465 -159,-123 -195,-149 -204,-149 -13,0 2,139 30,275 85,414 256,738 470,891 135,96 281,122 385,69 z"
       id="path1"
       style="fill:#ffffff;fill-opacity:1" />
    <path
       d="m 6250,8984 c 0,-33 33,-30 38,4 3,17 -2,22 -17,22 -16,0 -21,-6 -21,-26 z"
       id="path2"
       style="fill:#ffffff;fill-opacity:1" />
    <path
       d="m 5751,8476 c -16,-19 -6,-36 20,-36 15,0 20,6 17,22 -4,27 -21,33 -37,14 z"
       id="path3"
       style="fill:#ffffff;fill-opacity:1" />
    <path
       d="m 4914,9049 c -8,-14 11,-33 25,-25 16,10 13,36 -3,36 -8,0 -18,-5 -22,-11 z"
       id="path4"
       style="fill:#ffffff;fill-opacity:1" />
    <path
       d="m 4611,9019 c -22,-9 -23,-13 -18,-67 8,-99 94,-232 167,-262 34,-14 39,-30 10,-30 -23,0 -124,-50 -156,-77 -58,-51 -113,-159 -98,-196 8,-23 66,-47 111,-47 55,0 122,25 166,61 50,41 47,57 -6,26 -51,-30 -152,-53 -190,-43 -53,13 -48,57 12,134 43,54 116,96 186,107 l 41,6 12,-47 c 14,-52 68,-114 100,-114 27,0 38,31 17,47 -15,10 -14,13 12,26 42,23 77,64 79,96 1,16 5,38 9,51 19,59 -90,95 -149,49 l -26,-20 v 36 c 0,35 -25,95 -62,147 -52,75 -166,136 -217,117 z m 100,-65 c 34,-17 89,-75 112,-116 15,-30 25,-128 11,-128 -12,0 -99,53 -111,68 -54,67 -101,171 -87,194 6,10 34,3 75,-18 z m 295,-277 c -5,-27 -46,-80 -46,-60 0,4 -6,-2 -14,-13 -12,-15 -18,-17 -33,-8 -23,15 -19,51 10,82 46,50 93,49 83,-1 z"
       id="path5"
       style="fill:#ffffff;fill-opacity:1" />
    <path
       d="m 4950,8651 c 0,-7 -5,-9 -12,-5 -7,5 -8,3 -3,-5 5,-9 10,-10 18,-2 6,6 8,14 4,18 -4,3 -7,1 -7,-6 z"
       id="path6"
       style="fill:#ffffff;fill-opacity:1" />
    <path
       d="m 4200,8886 c 0,-30 16,-42 35,-26 25,21 19,50 -10,50 -20,0 -25,-5 -25,-24 z"
       id="path7"
       style="fill:#ffffff;fill-opacity:1" />
    <path
       d="m 3896,8834 c -9,-22 17,-49 39,-40 10,3 15,15 13,28 -4,29 -42,37 -52,12 z"
       id="path8"
       style="fill:#ffffff;fill-opacity:1" />
    <path
       d="m 4460,8804 c 0,-9 7,-14 17,-12 25,5 28,28 4,28 -12,0 -21,-6 -21,-16 z"
       id="path9"
       style="fill:#ffffff;fill-opacity:1" />
    <path
       d="m 4174,8624 c -39,-19 -66,-47 -93,-99 -62,-116 20,-289 144,-302 l 44,-6 3,-96 c 2,-77 6,-96 18,-96 10,0 16,12 17,35 11,149 14,161 41,171 37,14 90,66 114,113 30,59 22,151 -18,208 -43,62 -94,88 -174,88 -38,0 -78,-7 -96,-16 z m 175,-44 c 54,-27 81,-74 81,-140 0,-117 -70,-178 -197,-172 -36,2 -87,41 -109,84 -23,45 -22,127 2,169 42,72 145,99 223,59 z"
       id="path10"
       style="fill:#ffffff;fill-opacity:1" />
    <path
       d="m 7110,8600 c 0,-13 7,-20 20,-20 13,0 20,7 20,20 0,13 -7,20 -20,20 -13,0 -20,-7 -20,-20 z"
       id="path11"
       style="fill:#ffffff;fill-opacity:1" />
    <path
       d="m 3668,8573 c -25,-10 -38,-22 -38,-34 0,-23 7,-23 53,-4 49,20 83,19 123,-6 29,-18 35,-19 40,-5 8,21 -3,36 -42,52 -43,18 -89,17 -136,-3 z"
       id="path12"
       style="fill:#ffffff;fill-opacity:1" />
    <path
       d="m 7245,8371 c -46,-12 -92,-38 -109,-63 -26,-37 -2,-43 40,-12 33,26 46,29 108,29 88,0 116,-17 152,-91 27,-54 54,-71 54,-34 0,51 -69,139 -126,160 -37,14 -87,19 -119,11 z"
       id="path13"
       style="fill:#ffffff;fill-opacity:1" />
    <path
       d="m 3902,8283 c 2,-10 13,-19 26,-21 17,-3 22,2 22,17 0,16 -6,21 -26,21 -19,0 -25,-5 -22,-17 z"
       id="path14"
       style="fill:#ffffff;fill-opacity:1" />
    <path
       d="m 7225,8256 c -38,-17 -60,-42 -79,-88 -19,-45 -29,-52 -58,-38 -15,8 -10,-1 15,-25 21,-20 43,-35 50,-32 6,2 20,28 30,58 24,69 42,89 82,89 37,0 62,-24 71,-67 5,-26 1,-36 -25,-61 -35,-33 -38,-44 -17,-62 12,-9 19,-6 37,14 13,14 27,26 32,26 5,0 8,-89 6,-222 -3,-164 -1,-222 8,-225 25,-9 32,40 34,245 2,174 -1,215 -13,234 -9,13 -19,42 -22,64 -13,76 -87,120 -151,90 z"
       id="path15"
       style="fill:#ffffff;fill-opacity:1" />
    <path
       d="m 3141,8236 c -12,-14 -5,-26 16,-26 15,0 18,26 4,34 -5,3 -14,0 -20,-8 z"
       id="path16"
       style="fill:#ffffff;fill-opacity:1" />
    <path
       d="m 3319,8213 c 0,-4 -2,-26 -4,-48 -1,-22 -6,-49 -10,-61 -9,-29 20,-52 46,-36 25,16 29,15 29,-4 0,-11 8,-14 28,-12 26,3 27,5 27,57 -1,40 -6,57 -20,67 -30,22 -38,17 -32,-21 3,-19 2,-35 -3,-35 -10,0 -17,24 -22,70 -3,23 -37,43 -39,23 z"
       id="path17"
       style="fill:#ffffff;fill-opacity:1" />
    <path
       d="m 4517,8193 c -12,-11 -8,-23 8,-23 8,0 15,7 15,15 0,16 -12,20 -23,8 z"
       id="path18"
       style="fill:#ffffff;fill-opacity:1" />
    <path
       d="m 3662,8158 c -16,-16 -16,-185 1,-217 7,-14 56,-48 124,-85 81,-45 113,-67 118,-84 9,-35 4,-282 -5,-282 -5,0 -12,5 -15,10 -11,17 -58,37 -105,44 l -45,7 43,-20 c 59,-28 100,-58 114,-84 9,-18 5,-17 -23,7 -107,91 -253,87 -367,-9 -60,-50 -90,-143 -72,-218 46,-181 263,-241 427,-117 59,44 91,107 105,201 15,109 4,701 -14,712 -100,59 -260,147 -266,147 -4,0 -13,-5 -20,-12 z"
       id="path19"
       style="fill:#ffffff;fill-opacity:1" />
    <path
       d="m 6982,8148 c 2,-15 10,-23 23,-23 13,0 21,8 23,23 3,18 -1,22 -23,22 -22,0 -26,-4 -23,-22 z"
       id="path20"
       style="fill:#ffffff;fill-opacity:1" />
    <path
       d="m 7460,8125 c 0,-26 18,-33 37,-14 16,16 5,39 -18,39 -14,0 -19,-7 -19,-25 z"
       id="path21"
       style="fill:#ffffff;fill-opacity:1" />
    <path
       d="m 4839,8094 c -9,-11 -9,-18 -1,-26 14,-14 42,-3 42,16 0,20 -27,27 -41,10 z"
       id="path22"
       style="fill:#ffffff;fill-opacity:1" />
    <path
       d="m 2790,8064 c 0,-33 33,-30 38,4 3,17 -2,22 -17,22 -16,0 -21,-6 -21,-26 z"
       id="path23"
       style="fill:#ffffff;fill-opacity:1" />
    <path
       d="m 7957,8014 c -4,-4 -7,-16 -7,-26 0,-14 6,-19 23,-16 14,2 22,10 22,23 0,20 -25,32 -38,19 z"
       id="path24"
       style="fill:#ffffff;fill-opacity:1" />
    <path
       d="m 2815,7900 c -18,-19 -19,-49 -22,-573 -2,-303 -6,-557 -8,-564 -3,-9 -41,-13 -127,-15 -108,-3 -123,-5 -126,-20 -3,-16 8,-18 127,-18 h 131 v -30 c 0,-25 -6,-32 -35,-44 -87,-37 -152,-112 -180,-211 -44,-149 28,-311 161,-366 l 54,-23 -1,-259 -1,-259 26,-39 c 77,-116 259,-8 218,130 -17,55 -47,89 -93,102 -29,9 -45,9 -64,1 l -25,-12 v 170 170 h 55 c 42,0 57,4 62,16 9,23 -15,34 -75,34 h -53 l 2,190 c 1,180 3,190 21,190 30,0 91,-29 121,-58 69,-65 76,-108 77,-454 v -238 h 75 c 68,0 75,2 75,20 0,17 -7,20 -44,20 -31,0 -46,5 -50,16 -12,32 -6,283 10,370 23,127 22,236 -1,309 -33,103 -158,205 -252,205 -22,0 -22,2 -25,165 l -3,165 h 53 c 86,0 141,41 186,140 44,95 59,182 59,330 0,114 -3,144 -22,195 -41,114 -101,185 -196,233 -65,33 -88,36 -110,12 z m 194,-381 c 37,-37 53,-92 53,-180 -1,-69 -23,-173 -47,-220 -21,-40 -73,-79 -105,-79 -62,0 -60,-5 -60,202 0,209 6,236 62,283 39,33 60,32 97,-6 z m -220,-1250 2,-172 -28,7 c -52,13 -83,69 -83,149 0,56 27,127 62,165 41,43 44,32 47,-149 z"
       id="path25"
       style="fill:#ffffff;fill-opacity:1" />
    <path
       d="m 6847,7914 c -4,-4 -7,-61 -7,-126 v -119 l -34,7 c -74,13 -163,-49 -186,-130 -10,-37 -9,-53 4,-99 39,-134 188,-175 284,-79 72,72 78,173 16,242 l -33,37 -3,134 c -3,111 -6,134 -18,137 -9,1 -19,0 -23,-4 z m -30,-275 c 31,-12 93,-67 93,-83 -1,-6 -9,-2 -18,10 -30,36 -65,48 -129,45 -31,-1 -81,-47 -92,-84 l -9,-32 -1,30 c -1,41 29,88 70,108 40,20 49,20 86,6 z"
       id="path26"
       style="fill:#ffffff;fill-opacity:1" />
    <path
       d="m 7575,7895 c -30,-29 -32,-68 -5,-95 63,-63 161,32 100,98 -27,29 -65,28 -95,-3 z"
       id="path27"
       style="fill:#ffffff;fill-opacity:1" />
    <path
       d="m 4690,7834 c 0,-33 33,-30 38,4 3,17 -2,22 -17,22 -16,0 -21,-6 -21,-26 z"
       id="path28"
       style="fill:#ffffff;fill-opacity:1" />
    <path
       d="m 4424,7796 c -7,-30 1,-46 25,-46 20,0 33,32 24,56 -9,23 -42,16 -49,-10 z"
       id="path29"
       style="fill:#ffffff;fill-opacity:1" />
    <path
       d="m 3313,7774 c -7,-18 11,-39 26,-30 17,11 13,46 -4,46 -9,0 -18,-7 -22,-16 z"
       id="path30"
       style="fill:#ffffff;fill-opacity:1" />
    <path
       d="m 2543,7764 c -7,-19 34,-64 53,-57 21,8 17,40 -8,57 -28,20 -37,20 -45,0 z"
       id="path31"
       style="fill:#ffffff;fill-opacity:1" />
    <path
       d="m 7077,7763 c -15,-14 -7,-43 12,-43 24,0 33,13 25,34 -6,16 -25,21 -37,9 z"
       id="path32"
       style="fill:#ffffff;fill-opacity:1" />
    <path
       d="m 4381,7722 c -22,-3 -51,-23 -51,-35 0,-11 104,-18 160,-12 58,7 77,23 48,41 -12,8 -116,11 -157,6 z"
       id="path33"
       style="fill:#ffffff;fill-opacity:1" />
    <path
       d="m 7970,7700 c -12,-7 -16,-38 -20,-133 -6,-146 0,-138 -145,-213 -49,-26 -105,-57 -123,-71 -40,-30 -66,-78 -58,-109 4,-13 2,-24 -3,-24 -15,0 -23,68 -10,92 6,13 25,38 42,56 29,30 29,32 10,32 -29,0 -79,-52 -93,-96 -15,-45 -7,-88 25,-130 84,-110 320,-42 397,114 21,44 23,62 26,255 3,152 1,212 -8,222 -14,17 -20,18 -40,5 z"
       id="path34"
       style="fill:#ffffff;fill-opacity:1" />
    <path
       d="m 2527,7694 c -16,-17 -6,-50 20,-62 36,-16 50,-2 37,35 -9,27 -42,42 -57,27 z"
       id="path35"
       style="fill:#ffffff;fill-opacity:1" />
    <path
       d="m 3567,7694 c -16,-16 -6,-35 16,-32 12,2 22,10 22,18 0,16 -26,25 -38,14 z"
       id="path36"
       style="fill:#ffffff;fill-opacity:1" />
    <path
       d="m 8298,7639 c -27,-15 -24,-83 4,-103 30,-21 50,-20 76,4 59,55 -10,140 -80,99 z m 52,-54 c 0,-16 -6,-25 -15,-25 -16,0 -19,9 -9,34 9,25 24,19 24,-9 z"
       id="path37"
       style="fill:#ffffff;fill-opacity:1" />
    <path
       d="m 7664,7539 c -9,-15 11,-33 30,-26 9,4 13,13 10,22 -7,17 -30,20 -40,4 z"
       id="path38"
       style="fill:#ffffff;fill-opacity:1" />
    <path
       d="m 2144,7505 c -8,-21 10,-39 30,-32 22,9 20,24 -4,37 -16,9 -22,8 -26,-5 z"
       id="path39"
       style="fill:#ffffff;fill-opacity:1" />
    <path
       d="m 4130,7451 c 0,-26 17,-36 35,-21 23,19 18,40 -10,40 -18,0 -25,-5 -25,-19 z"
       id="path40"
       style="fill:#ffffff;fill-opacity:1" />
    <path
       d="m 4380,7398 c 0,-4 7,-8 15,-8 8,0 15,4 15,8 0,5 -7,9 -15,9 -8,0 -15,-4 -15,-9 z"
       id="path41"
       style="fill:#ffffff;fill-opacity:1" />
    <path
       d="m 7177,7373 c -8,-10 -18,-30 -22,-44 -5,-21 -1,-31 21,-48 29,-23 60,-21 82,7 19,24 15,50 -13,77 -29,29 -46,31 -68,8 z m 43,-53 c 0,-11 -4,-20 -10,-20 -5,0 -10,9 -10,20 0,11 5,20 10,20 6,0 10,-9 10,-20 z"
       id="path42"
       style="fill:#ffffff;fill-opacity:1" />
    <path
       d="m 2355,7336 c -11,-26 -22,-35 -49,-40 -19,-4 -40,-13 -47,-22 -10,-12 -7,-20 15,-43 23,-24 27,-35 24,-77 -3,-47 -2,-49 21,-46 14,1 33,10 43,19 18,16 21,16 47,0 34,-20 71,-22 71,-4 0,6 -4,27 -9,45 -9,29 -6,37 19,65 34,39 29,53 -24,62 -31,6 -41,14 -52,41 -18,43 -41,43 -59,0 z"
       id="path43"
       style="fill:#ffffff;fill-opacity:1" />
    <path
       d="m 8545,7341 c -77,-19 -125,-85 -125,-172 0,-102 76,-174 178,-167 35,2 48,7 50,21 3,14 -4,17 -34,17 -51,0 -121,36 -139,71 -36,69 -3,160 67,187 45,18 77,11 111,-24 49,-49 28,-123 -39,-140 -15,-4 -34,-2 -43,3 -22,14 -21,67 2,71 10,2 17,-3 17,-12 0,-24 38,-19 46,6 9,30 -30,62 -65,53 -41,-10 -63,-38 -63,-80 0,-88 109,-120 178,-51 29,29 34,41 34,83 0,53 -15,81 -58,111 -33,24 -77,32 -117,23 z"
       id="path44"
       style="fill:#ffffff;fill-opacity:1" />
    <path
       d="m 8237,7314 c -4,-4 -7,-16 -7,-26 0,-14 6,-19 23,-16 14,2 22,10 22,23 0,20 -25,32 -38,19 z"
       id="path45"
       style="fill:#ffffff;fill-opacity:1" />
    <path
       d="m 6398,7213 c -14,-2 -31,-10 -37,-17 -7,-9 -12,-92 -14,-227 l -3,-214 -119,-3 c -113,-3 -143,-11 -129,-34 3,-4 268,-8 590,-8 549,0 584,-1 585,-17 4,-92 3,-243 -2,-247 -3,-3 -354,-7 -780,-9 -767,-2 -774,-2 -774,-22 0,-20 7,-20 1158,-20 h 1157 v -152 -151 l -37,-5 c -21,-3 -530,-6 -1132,-6 -654,-1 -1099,-5 -1104,-10 -29,-29 15,-31 867,-31 h 864 l 5,-202 c 2,-112 4,-248 3,-303 -1,-112 11,-154 53,-182 23,-16 51,-18 254,-18 220,0 228,-1 225,-19 -3,-19 -12,-20 -211,-17 -230,3 -264,-3 -299,-51 -21,-30 -22,-39 -22,-313 -1,-214 2,-285 12,-297 11,-14 6,-17 -43,-23 -45,-5 -55,-10 -55,-26 0,-19 12,-19 573,-17 564,3 572,3 572,23 0,20 -7,20 -485,22 -480,3 -485,3 -502,24 -16,19 -18,49 -18,293 0,230 2,275 16,294 15,22 19,22 240,22 h 224 v -141 -140 l -112,1 c -153,2 -154,2 -172,-16 -22,-21 -20,-67 2,-87 17,-15 67,-17 519,-17 h 501 l 4,-27 c 2,-16 3,-66 3,-113 v -85 l -58,-3 c -54,-3 -58,-5 -55,-25 3,-19 10,-22 59,-25 l 57,-3 1,-150 c 1,-82 -1,-160 -5,-173 l -6,-23 -51,20 c -38,15 -76,20 -143,21 -86,1 -95,-2 -167,-37 -106,-52 -186,-150 -222,-270 l -11,-38 -226,1 c -202,1 -226,-1 -232,-16 -4,-9 -4,-20 0,-23 3,-3 73,-8 155,-9 l 149,-4 -2,-451 -3,-452 h -290 -290 l -3,98 -3,97 h 243 c 134,0 249,4 257,9 8,5 11,16 8,26 -6,15 -28,16 -199,15 -106,-1 -219,-1 -250,-1 l -58,1 v 145 144 l 138,3 137,3 3,43 c 5,68 -3,72 -144,72 h -124 l -2,213 c -2,213 1,369 6,374 2,2 174,4 382,4 209,0 386,4 393,9 8,4 11,15 8,24 -6,15 -44,17 -394,16 l -388,-1 -3,72 c -2,41 2,85 9,102 22,53 49,57 359,57 263,0 281,1 278,18 -3,16 -26,17 -296,20 -326,3 -328,2 -379,-65 l -28,-36 -3,-381 c -2,-210 1,-399 5,-421 l 9,-40 132,-3 c 110,-2 132,-5 132,-18 0,-13 -21,-15 -142,-13 l -143,1 -3,-171 -2,-171 h -334 c -184,0 -341,-3 -350,-6 -21,-8 -21,-30 0,-38 9,-3 166,-6 350,-6 h 334 v -538 c 0,-296 -3,-541 -6,-544 -3,-4 -22,5 -41,18 -92,62 -222,53 -321,-23 -39,-29 -92,-108 -92,-135 0,-29 24,-21 39,14 19,42 78,99 125,122 54,25 142,32 186,14 41,-17 100,-65 100,-81 0,-6 -10,-1 -23,11 -60,57 -164,64 -256,18 -172,-88 -163,-328 16,-403 114,-47 265,23 314,147 12,32 19,394 19,1023 v 107 h 295 295 v -125 -125 h -127 c -147,0 -173,-5 -173,-31 0,-18 10,-19 169,-19 110,0 172,4 176,11 4,6 7,289 8,630 l 1,619 h 48 48 v -37 c 0,-43 21,-126 40,-163 98,-191 332,-272 525,-181 117,54 187,141 221,272 30,115 0,240 -82,345 l -44,57 v 204 203 h 54 c 81,0 116,9 116,31 0,16 -10,19 -82,21 l -83,3 -2,313 -2,312 h 75 c 58,0 76,3 81,15 9,25 -4,30 -78,30 -65,0 -69,1 -69,23 0,21 4,22 80,22 73,0 80,2 80,20 0,17 -8,19 -82,22 l -83,3 -3,328 -2,327 h 80 c 63,0 82,3 87,15 9,24 1,26 -84,28 l -78,2 -1,153 -1,152 h 61 c 79,0 108,8 104,29 -3,13 -20,17 -83,21 l -80,5 -3,30 c -2,17 -1,76 3,133 l 7,102 h 79 c 72,0 79,2 79,20 0,14 -7,20 -22,21 -13,0 -390,2 -838,2 l -815,2 -3,68 c -2,58 -6,68 -20,65 -13,-3 -18,-16 -20,-64 l -3,-62 -62,-5 c -34,-3 -232,-6 -439,-7 l -378,-1 v 211 210 h 50 c 42,0 50,3 50,19 0,27 -33,34 -102,24 z m 1632,-638 v -135 h -350 -350 v 135 135 h 350 350 z m 320,0 v -135 h -130 -130 v 135 135 h 130 130 z m 425,3 v -133 l -182,-3 c -162,-2 -182,-1 -185,14 -2,9 -2,70 0,135 l 3,119 h 183 182 z m -3,-235 -4,-48 -56,-1 c -60,-1 -141,-34 -174,-71 -25,-28 -48,-88 -48,-126 0,-112 100,-187 228,-171 l 52,6 v -126 -126 h -340 -340 v 180 180 h 160 c 136,0 162,2 167,15 3,9 3,18 1,21 -3,2 -78,5 -166,5 l -162,1 v 154 154 h 343 342 z m -742,-483 v -179 l -142,-3 -143,-3 -10,-29 c -8,-25 -6,-31 18,-52 26,-23 36,-24 153,-24 122,0 124,0 125,-22 2,-43 2,-83 0,-125 l -1,-43 h -215 c -216,0 -216,0 -240,25 l -25,24 v 306 305 h 240 240 z m 741,-322 c 1,-18 2,-60 3,-93 l 1,-60 -342,-3 -343,-2 v 95 95 h 340 340 z m 3,-213 c 2,-7 1,-16 -2,-21 -4,-5 -153,-9 -344,-9 -331,0 -338,0 -338,20 0,20 7,20 340,21 251,0 340,-2 344,-11 z m -2,-177 c 2,-57 2,-120 0,-140 l -3,-37 h -340 l -339,-1 v 140 140 h 339 340 z m -49,-950 c 34,-16 57,-33 57,-43 0,-12 -10,-10 -52,12 -73,39 -188,44 -269,14 -127,-48 -215,-175 -221,-319 -1,-23 -5,-47 -10,-54 -4,-7 -7,25 -5,72 5,160 88,279 230,331 76,28 193,23 270,-13 z m 174,-290 c -3,-8 -6,-5 -6,6 -1,11 2,17 5,13 3,-3 4,-12 1,-19 z"
       id="path46"
       style="fill:#ffffff;fill-opacity:1" />
    <path
       d="m 1996,7141 c -10,-16 6,-42 23,-39 9,2 17,13 19,26 3,16 -2,22 -17,22 -11,0 -22,-4 -25,-9 z"
       id="path47"
       style="fill:#ffffff;fill-opacity:1" />
    <path
       d="m 7330,7082 c 0,-10 5,-23 12,-30 9,-9 8,-17 -2,-37 -19,-36 1,-56 30,-30 19,17 21,17 39,1 34,-31 56,1 24,36 -15,17 -15,19 1,37 19,21 14,41 -9,41 -8,0 -19,-8 -25,-17 -10,-17 -10,-17 -20,0 -15,23 -50,22 -50,-1 z"
       id="path48"
       style="fill:#ffffff;fill-opacity:1" />
    <path
       d="m 8153,7063 c -15,-5 -17,-39 -4,-47 17,-11 42,6 39,27 -3,22 -15,29 -35,20 z"
       id="path49"
       style="fill:#ffffff;fill-opacity:1" />
    <path
       d="m 6889,7030 c -9,-23 -20,-32 -57,-42 -25,-7 -47,-18 -49,-24 -2,-6 8,-25 22,-42 20,-24 25,-41 25,-82 0,-38 4,-51 13,-47 83,31 85,31 102,13 10,-9 27,-16 39,-14 19,3 21,9 18,52 -2,42 2,54 24,77 34,35 26,55 -24,64 -32,5 -40,12 -51,41 -16,44 -48,47 -62,4 z"
       id="path50"
       style="fill:#ffffff;fill-opacity:1" />
    <path
       d="m 8904,7025 c -4,-9 -2,-21 4,-27 15,-15 44,-1 40,19 -4,23 -36,29 -44,8 z"
       id="path51"
       style="fill:#ffffff;fill-opacity:1" />
    <path
       d="m 3237,7013 c -12,-12 -7,-41 7,-46 19,-8 38,16 30,37 -6,16 -25,21 -37,9 z"
       id="path52"
       style="fill:#ffffff;fill-opacity:1" />
    <path
       d="m 6000,6990 c 0,-13 7,-20 20,-20 13,0 20,7 20,20 0,13 -7,20 -20,20 -13,0 -20,-7 -20,-20 z"
       id="path53"
       style="fill:#ffffff;fill-opacity:1" />
    <path
       d="m 2203,6973 c -9,-3 -13,-34 -13,-103 0,-92 -1,-98 -22,-106 -13,-4 -212,-10 -443,-13 -364,-5 -420,-8 -420,-21 0,-13 53,-16 397,-20 l 397,-5 50,-54 49,-55 56,52 c 39,35 68,53 94,57 54,9 62,13 62,28 0,16 -49,27 -122,27 h -48 v 94 c 0,119 -4,133 -37,119 z"
       id="path54"
       style="fill:#ffffff;fill-opacity:1" />
    <path
       d="m 2900,6740 c -38,-24 10,-30 206,-28 169,3 199,5 199,18 0,13 -29,15 -195,17 -111,2 -201,-1 -210,-7 z"
       id="path55"
       style="fill:#ffffff;fill-opacity:1" />
    <path
       d="m 3436,6735 c -3,-9 0,-18 7,-21 7,-2 89,-3 182,-2 152,3 170,5 173,21 3,16 -10,17 -176,17 -153,0 -181,-2 -186,-15 z"
       id="path56"
       style="fill:#ffffff;fill-opacity:1" />
    <path
       d="m 5637,6743 c -4,-3 -7,-12 -7,-20 0,-11 33,-13 172,-11 155,3 173,5 176,21 3,16 -10,17 -166,17 -93,0 -172,-3 -175,-7 z"
       id="path57"
       style="fill:#ffffff;fill-opacity:1" />
    <path
       d="m 1790,6430 c -7,-4 -10,-15 -7,-24 6,-14 43,-16 340,-16 264,0 337,3 352,13 43,32 8,36 -334,35 -186,0 -344,-4 -351,-8 z"
       id="path58"
       style="fill:#ffffff;fill-opacity:1" />
    <path
       d="m 3300,6425 c -23,-28 0,-35 108,-35 112,0 139,7 129,34 -9,22 -218,24 -237,1 z"
       id="path59"
       style="fill:#ffffff;fill-opacity:1" />
    <path
       d="m 1472,6405 c -11,-13 -9,-15 8,-15 11,0 20,7 20,15 0,19 -11,19 -28,0 z"
       id="path60"
       style="fill:#ffffff;fill-opacity:1" />
    <path
       d="m 7796,6281 c -10,-16 5,-42 23,-39 21,4 21,42 -1,46 -9,2 -19,-1 -22,-7 z"
       id="path61"
       style="fill:#ffffff;fill-opacity:1" />
    <path
       d="m 1730,6248 c 0,-7 15,-20 33,-29 63,-31 95,-115 66,-172 -36,-70 -98,-99 -163,-77 -34,11 -76,55 -76,79 0,6 20,26 45,43 51,36 69,74 51,109 -10,19 -19,24 -50,23 -52,-2 -88,-31 -108,-90 l -16,-49 -102,-1 c -55,-1 -103,-4 -107,-7 -3,-4 -3,-13 0,-22 5,-12 26,-15 116,-15 104,0 111,-1 122,-22 63,-123 240,-132 316,-17 52,79 29,189 -51,238 -37,23 -76,28 -76,9 z m -72,-85 c 2,-15 -2,-23 -11,-23 -8,0 -29,-13 -47,-30 -18,-16 -34,-30 -37,-30 -3,0 -3,14 1,32 13,66 86,105 94,51 z"
       id="path62"
       style="fill:#ffffff;fill-opacity:1" />
    <path
       d="m 2025,6210 c -3,-5 3,-10 14,-10 12,0 21,5 21,10 0,6 -6,10 -14,10 -8,0 -18,-4 -21,-10 z"
       id="path63"
       style="fill:#ffffff;fill-opacity:1" />
    <path
       d="m 2247,6083 c -10,-3 -17,-12 -15,-21 3,-15 23,-17 166,-20 140,-2 163,0 168,13 4,9 4,19 1,22 -8,7 -295,13 -320,6 z"
       id="path64"
       style="fill:#ffffff;fill-opacity:1" />
    <path
       d="m 3275,6077 c -24,-18 -11,-37 25,-37 38,0 60,9 60,25 0,26 -55,33 -85,12 z"
       id="path65"
       style="fill:#ffffff;fill-opacity:1" />
    <path
       d="m 4783,6083 c -7,-3 -13,-13 -13,-24 0,-18 10,-19 250,-19 217,0 251,2 257,15 3,9 3,18 1,20 -6,6 -480,13 -495,8 z"
       id="path66"
       style="fill:#ffffff;fill-opacity:1" />
    <path
       d="m 2072,6028 c -9,-9 -12,-122 -12,-447 0,-240 -3,-453 -7,-474 l -6,-38 -36,34 c -99,96 -248,95 -368,-1 -64,-51 -121,-182 -79,-182 8,0 21,21 31,49 21,63 83,125 152,151 99,37 172,22 244,-50 60,-60 66,-87 7,-30 -111,106 -291,70 -362,-72 -98,-197 120,-398 320,-295 56,28 93,67 126,131 28,54 34,153 37,626 1,206 3,376 5,377 4,4 115,-57 221,-121 137,-83 225,-163 263,-238 33,-67 68,-339 46,-361 -3,-3 -18,6 -33,20 -32,31 -116,71 -156,74 -44,3 -123,-11 -134,-25 -7,-8 14,-11 78,-11 80,0 92,-3 137,-30 46,-29 94,-85 94,-109 0,-6 -12,4 -26,22 -40,51 -98,76 -174,76 -135,0 -234,-97 -234,-229 0,-133 95,-225 234,-225 106,0 183,47 230,141 35,69 45,154 45,392 v 147 h 172 c 179,0 203,3 203,26 0,22 -34,25 -212,22 l -167,-3 -21,85 c -38,153 -105,256 -216,333 -106,74 -374,247 -382,247 -5,0 -13,-5 -20,-12 z m 219,-179 c 48,-32 89,-65 92,-73 4,-10 1,-13 -9,-9 -7,3 -14,12 -14,20 0,8 -5,11 -12,7 -6,-4 -16,-1 -22,7 -13,16 -31,27 -131,80 -49,26 -71,44 -73,59 -3,21 -2,20 40,-6 24,-15 82,-54 129,-85 z m -86,-7 c -3,-3 -11,0 -18,7 -9,10 -8,11 6,5 10,-3 15,-9 12,-12 z m 228,-96 c 16,-13 16,-14 -8,-18 -14,-3 -30,1 -36,9 -10,11 -8,12 6,7 13,-5 16,-4 11,4 -10,16 5,15 27,-2 z m 27,-37 c 0,-6 6,-9 14,-6 8,3 18,-5 25,-19 7,-15 16,-22 23,-18 6,4 8,3 4,-4 -3,-5 0,-13 6,-15 9,-4 9,-6 1,-6 -6,-1 -18,6 -26,14 -8,8 -18,11 -22,7 -5,-4 -5,1 -2,10 4,11 2,15 -6,13 -7,-3 -23,4 -37,15 l -25,20 h 23 c 12,0 22,-5 22,-11 z m 100,-94 c 7,-9 8,-15 2,-15 -5,0 -12,7 -16,15 -3,8 -4,15 -2,15 2,0 9,-7 16,-15 z"
       id="path67"
       style="fill:#ffffff;fill-opacity:1" />
    <path
       d="m 6606,5839 c -14,-11 -33,-34 -41,-50 -15,-28 -17,-28 -112,-31 -84,-3 -98,-6 -101,-20 -3,-16 7,-18 105,-18 h 108 l 46,-50 46,-50 h 197 c 169,0 197,2 203,16 12,31 -13,36 -196,34 -182,-1 -213,4 -225,36 -6,14 17,16 241,14 137,-1 254,-2 261,-1 6,1 12,10 12,22 0,20 -2,20 -257,17 -142,-2 -266,-7 -275,-12 -25,-11 -23,14 3,48 l 20,26 h 214 c 186,0 215,-2 223,-16 11,-19 41,-15 55,8 8,12 7,21 -2,32 -12,14 -47,16 -256,16 -231,0 -244,-1 -269,-21 z"
       id="path68"
       style="fill:#ffffff;fill-opacity:1" />
    <path
       d="m 1673,5763 c -14,-29 -26,-39 -51,-44 -19,-4 -38,-11 -44,-17 -12,-12 5,-48 31,-61 15,-9 18,-19 14,-56 -5,-42 -4,-45 19,-45 13,0 33,6 44,14 17,13 22,13 42,0 13,-8 33,-14 45,-12 20,3 22,8 19,50 -3,41 0,49 23,64 14,9 25,25 25,35 0,18 -12,23 -65,31 -11,2 -29,20 -40,41 -11,20 -26,37 -32,37 -7,0 -21,-17 -30,-37 z"
       id="path69"
       style="fill:#ffffff;fill-opacity:1" />
    <path
       d="m 4487,5753 c -4,-3 -7,-12 -7,-20 0,-10 52,-13 271,-13 252,0 270,1 267,18 -3,16 -25,17 -264,20 -143,1 -263,-1 -267,-5 z"
       id="path70"
       style="fill:#ffffff;fill-opacity:1" />
    <path
       d="m 1315,5367 c -44,-33 -10,-37 320,-37 178,0 330,3 339,6 23,9 19,31 -6,38 -13,3 -161,6 -329,6 -240,0 -309,-3 -324,-13 z"
       id="path71"
       style="fill:#ffffff;fill-opacity:1" />
    <path
       d="m 2201,5366 c -25,-30 11,-37 190,-34 172,3 174,3 177,26 l 3,22 h -179 c -140,0 -182,-3 -191,-14 z"
       id="path72"
       style="fill:#ffffff;fill-opacity:1" />
    <path
       d="m 4406,5364 c -9,-23 -4,-26 46,-31 49,-4 74,7 65,31 -9,23 -102,23 -111,0 z"
       id="path73"
       style="fill:#ffffff;fill-opacity:1" />
    <path
       d="m 6918,5373 c -25,-6 -22,-30 5,-37 29,-8 531,-8 551,0 9,3 16,12 16,19 0,7 -7,16 -16,19 -18,7 -530,6 -556,-1 z"
       id="path74"
       style="fill:#ffffff;fill-opacity:1" />
    <path
       d="m 2951,5071 c -19,-12 -4,-53 17,-49 21,4 30,58 10,58 -7,0 -19,-4 -27,-9 z"
       id="path75"
       style="fill:#ffffff;fill-opacity:1" />
    <path
       d="m 1684,4615 c -9,-7 -11,-15 -4,-25 14,-23 1026,-23 1040,0 6,9 6,18 0,24 -13,13 -1019,14 -1036,1 z"
       id="path76"
       style="fill:#ffffff;fill-opacity:1" />
    <path
       d="m 1312,4598 c 3,-22 8,-23 98,-26 115,-3 140,2 140,28 0,19 -7,20 -121,20 -119,0 -120,0 -117,-22 z"
       id="path77"
       style="fill:#ffffff;fill-opacity:1" />
    <path
       d="m 2853,4604 c -11,-29 13,-35 123,-32 104,3 109,4 112,26 3,22 2,22 -113,22 -96,0 -117,-3 -122,-16 z"
       id="path78"
       style="fill:#ffffff;fill-opacity:1" />
    <path
       d="m 3917,4614 c -4,-4 -7,-16 -7,-26 0,-17 10,-18 173,-16 164,3 172,4 172,23 0,19 -8,20 -166,23 -91,1 -168,-1 -172,-4 z"
       id="path79"
       style="fill:#ffffff;fill-opacity:1" />
    <path
       d="m 5043,4604 c -3,-9 0,-20 8,-25 8,-5 111,-9 230,-9 165,0 219,3 234,13 42,32 8,37 -231,37 -206,0 -235,-2 -241,-16 z"
       id="path80"
       style="fill:#ffffff;fill-opacity:1" />
    <path
       d="m 5997,4613 c -4,-3 -7,-15 -7,-25 0,-17 11,-18 153,-18 156,0 185,6 174,34 -5,14 -28,16 -160,16 -85,0 -157,-3 -160,-7 z"
       id="path81"
       style="fill:#ffffff;fill-opacity:1" />
    <path
       d="m 7207,4596 c -9,-23 18,-40 43,-26 12,6 19,17 17,23 -6,18 -53,21 -60,3 z"
       id="path82"
       style="fill:#ffffff;fill-opacity:1" />
    <path
       d="m 2405,4381 c -29,-12 -71,-57 -85,-91 l -12,-30 h -207 -207 l -23,31 c -72,97 -195,92 -261,-12 -30,-45 -31,-51 -20,-86 26,-79 48,-110 94,-132 87,-43 183,15 206,124 l 6,30 h 204 204 l 7,-34 c 10,-48 38,-83 90,-109 49,-25 80,-23 141,10 34,19 56,54 73,116 l 6,22 h 300 c 292,0 299,0 299,20 0,20 -7,20 -300,20 -277,0 -301,1 -307,18 -11,32 -54,82 -83,97 -31,16 -92,19 -125,6 z m 132,-56 c 13,-14 23,-31 23,-38 -1,-7 -5,-6 -13,4 -49,64 -148,45 -183,-35 -12,-27 -13,-28 -14,-8 0,34 27,79 58,97 39,22 101,13 129,-20 z m -754,-4 c 22,-9 71,-71 62,-79 -2,-3 -16,10 -30,27 -23,26 -34,31 -71,31 -34,0 -51,-6 -69,-25 -14,-13 -25,-29 -25,-35 0,-5 -4,-10 -9,-10 -21,0 13,63 43,81 34,21 62,24 99,10 z"
       id="path83"
       style="fill:#ffffff;fill-opacity:1" />
    <path
       d="m 4443,3923 c -7,-2 -13,-13 -13,-24 0,-14 7,-19 29,-19 35,0 48,15 31,35 -13,15 -25,17 -47,8 z"
       id="path84"
       style="fill:#ffffff;fill-opacity:1" />
    <path
       d="m 1310,3905 c -7,-9 -10,-19 -6,-23 4,-4 281,-8 616,-10 535,-2 609,-4 614,-18 8,-22 2,-911 -6,-919 -4,-4 -14,0 -24,9 -40,41 -97,60 -179,60 -68,1 -87,-3 -130,-26 -64,-35 -88,-55 -120,-97 -25,-35 -34,-81 -15,-81 5,0 16,13 24,29 24,46 77,92 135,119 45,21 64,24 123,20 75,-6 116,-27 160,-83 l 23,-30 -45,32 c -120,85 -275,55 -357,-69 -25,-36 -28,-51 -28,-119 0,-70 3,-81 30,-120 17,-24 53,-57 80,-74 42,-26 58,-30 119,-30 107,1 193,52 237,142 l 24,48 3,607 c 3,600 2,608 -18,628 -20,20 -30,20 -634,20 -537,0 -615,-2 -626,-15 z"
       id="path85"
       style="fill:#ffffff;fill-opacity:1" />
    <path
       d="m 2673,3913 c -7,-2 -13,-11 -13,-18 0,-9 20,-15 63,-20 80,-8 673,-2 682,7 4,4 5,14 2,23 -6,13 -50,15 -364,14 -197,0 -364,-3 -370,-6 z"
       id="path86"
       style="fill:#ffffff;fill-opacity:1" />
    <path
       d="m 5083,3904 c -3,-8 -2,-18 1,-22 10,-9 347,-16 391,-8 37,7 47,29 18,40 -9,4 -104,6 -210,6 -161,-1 -195,-4 -200,-16 z"
       id="path87"
       style="fill:#ffffff;fill-opacity:1" />
    <path
       d="m 6230,3901 c 0,-16 10,-20 66,-26 60,-7 151,-1 162,10 2,2 2,11 -1,20 -5,12 -26,15 -117,15 -102,0 -110,-1 -110,-19 z"
       id="path88"
       style="fill:#ffffff;fill-opacity:1" />
    <path
       d="m 7157,3913 c -13,-12 -7,-31 11,-35 26,-7 42,2 42,23 0,13 -7,19 -23,19 -13,0 -27,-3 -30,-7 z"
       id="path89"
       style="fill:#ffffff;fill-opacity:1" />
    <path
       d="m 1864,3715 c -6,-14 62,-98 105,-131 10,-8 12,-23 7,-57 -11,-74 39,-141 86,-116 21,12 21,12 -5,26 -29,15 -40,44 -35,89 3,27 7,29 53,34 36,4 50,9 50,20 0,11 -15,16 -58,20 -56,5 -61,8 -119,68 -63,65 -75,72 -84,47 z"
       id="path90"
       style="fill:#ffffff;fill-opacity:1" />
    <path
       d="m 1630,3685 c 0,-18 5,-25 20,-25 15,0 20,7 20,25 0,18 -5,25 -20,25 -15,0 -20,-7 -20,-25 z"
       id="path91"
       style="fill:#ffffff;fill-opacity:1" />
    <path
       d="m 2282,3660 c -28,-21 -53,-44 -57,-50 -10,-16 -21,-12 -33,15 -23,51 -152,87 -160,44 -2,-12 7,-18 38,-22 71,-9 110,-64 110,-155 0,-156 -227,-182 -263,-31 -4,14 -1,49 7,78 13,49 12,51 -8,51 -35,-1 -100,-35 -128,-69 -42,-49 -52,-172 -15,-179 14,-3 17,4 17,48 0,67 21,115 59,135 l 31,15 -6,-43 c -10,-69 41,-150 109,-176 93,-35 211,20 237,110 6,19 10,53 10,76 0,39 5,47 67,106 39,38 63,69 59,75 -11,18 -21,15 -74,-28 z"
       id="path92"
       style="fill:#ffffff;fill-opacity:1" />
    <path
       d="m 2820,3681 c 0,-11 6,-21 13,-24 20,-7 37,4 37,24 0,14 -7,19 -25,19 -18,0 -25,-5 -25,-19 z"
       id="path93"
       style="fill:#ffffff;fill-opacity:1" />
    <path
       d="m 3049,3651 -29,-29 v -215 c 0,-190 2,-217 18,-237 17,-21 25,-21 252,-25 193,-3 239,-1 258,11 22,14 22,17 22,247 0,305 27,277 -269,277 h -223 z m 470,-88 c -1,-38 -8,-74 -15,-80 -17,-17 -27,-16 -21,1 3,8 1,17 -6,20 -7,2 -4,5 6,5 11,1 17,9 16,24 0,21 -1,21 -9,2 l -9,-20 -1,20 c -1,15 -4,12 -13,-11 -10,-27 -14,-30 -25,-18 -11,12 -10,14 3,14 10,0 15,9 15,28 0,21 -2,24 -10,12 -6,-9 -10,-11 -10,-3 0,7 -7,10 -15,7 -9,-4 -15,0 -15,8 0,10 -10,14 -30,13 -16,-1 -30,1 -30,5 0,4 -7,7 -15,7 -8,0 -15,-5 -15,-11 0,-6 -5,-4 -10,4 -7,11 -10,12 -10,2 0,-8 -6,-12 -12,-9 -20,7 -103,-42 -127,-74 -31,-42 -49,-98 -44,-139 3,-27 2,-31 -6,-20 -8,11 -11,-1 -11,-48 0,-79 -18,-74 -19,6 -1,31 -4,110 -7,174 -4,64 -4,124 -1,133 6,13 37,15 227,15 h 221 z m -231,-87 c 22,6 33,-3 65,-51 25,-36 27,-38 27,-15 1,21 2,22 10,8 24,-41 -29,-100 -91,-102 -80,-2 -118,88 -62,146 15,16 29,25 31,20 2,-6 11,-8 20,-6 z m 86,-11 c 9,-14 14,-25 12,-25 -3,0 -16,11 -30,25 -15,15 -20,25 -12,25 8,0 21,-11 30,-25 z m 134,-18 c 7,-8 7,-18 2,-27 -5,-8 -7,-32 -4,-52 6,-34 5,-36 -15,-31 -25,6 -28,23 -3,23 9,0 13,4 7,8 -5,4 -10,23 -10,42 0,19 -4,38 -10,42 -6,5 -3,8 6,8 9,0 21,-6 27,-13 z m -376,-135 c -7,-2 -12,-11 -12,-19 0,-9 -3,-14 -6,-10 -10,10 7,48 19,40 8,-5 8,-8 -1,-11 z m 42,-83 c -21,-23 -40,-24 -48,-3 -6,15 -4,15 10,3 15,-12 16,-11 10,9 -5,14 -3,22 4,22 7,0 9,7 5,18 -4,12 0,11 15,-6 21,-22 21,-24 4,-43 z m 316,51 c -8,-5 -19,-10 -25,-10 -5,0 -3,5 5,10 8,5 20,10 25,10 6,0 3,-5 -5,-10 z m -357,-15 c -3,-9 -8,-14 -10,-11 -3,3 -2,9 2,15 9,16 15,13 8,-4 z m 297,-5 c 0,-5 -5,-10 -11,-10 -5,0 -7,5 -4,10 3,6 8,10 11,10 2,0 4,-4 4,-10 z m -30,-14 c 0,-2 -11,-11 -25,-20 -14,-9 -25,-13 -25,-8 0,5 10,14 23,20 27,13 27,13 27,8 z m -131,-32 c 2,-2 -10,-4 -27,-4 -18,0 -32,5 -32,10 0,9 47,4 59,-6 z m 236,6 c 3,-5 1,-10 -4,-10 -6,0 -11,5 -11,10 0,6 2,10 4,10 3,0 8,-4 11,-10 z"
       id="path94"
       style="fill:#ffffff;fill-opacity:1" />
    <path
       d="m 3260,3426 c -6,-8 -10,-25 -8,-38 2,-19 9,-23 37,-23 45,0 62,26 37,54 -22,24 -49,27 -66,7 z"
       id="path95"
       style="fill:#ffffff;fill-opacity:1" />
    <path
       d="m 3160,3250 c 0,-5 5,-10 11,-10 5,0 7,5 4,10 -3,6 -8,10 -11,10 -2,0 -4,-4 -4,-10 z"
       id="path96"
       style="fill:#ffffff;fill-opacity:1" />
    <path
       d="m 7133,3523 c -7,-3 -13,-13 -13,-24 0,-14 7,-19 25,-19 18,0 25,5 25,19 0,20 -17,31 -37,24 z"
       id="path97"
       style="fill:#ffffff;fill-opacity:1" />
    <path
       d="m 1313,3204 c -21,-9 -15,-31 10,-38 12,-3 176,-6 365,-6 300,0 343,2 349,15 3,9 2,19 -2,23 -8,8 -704,14 -722,6 z"
       id="path98"
       style="fill:#ffffff;fill-opacity:1" />
    <path
       d="m 2304,3195 c -4,-9 -2,-21 4,-27 15,-15 44,-1 40,19 -4,23 -36,29 -44,8 z"
       id="path99"
       style="fill:#ffffff;fill-opacity:1" />
    <path
       d="m 2753,3203 c -18,-7 -16,-30 3,-37 32,-12 131,-6 144,9 10,12 8,16 -15,25 -27,10 -110,12 -132,3 z"
       id="path100"
       style="fill:#ffffff;fill-opacity:1" />
    <path
       d="m 3740,3195 c -7,-9 -10,-19 -6,-23 4,-4 85,-7 179,-7 165,0 172,1 172,20 0,19 -8,20 -166,23 -140,2 -168,0 -179,-13 z"
       id="path101"
       style="fill:#ffffff;fill-opacity:1" />
    <path
       d="m 8147,3203 c -10,-3 -17,-12 -15,-21 3,-16 40,-17 423,-19 233,-2 426,1 434,6 8,5 11,16 8,25 -5,13 -54,15 -419,14 -227,0 -421,-3 -431,-5 z"
       id="path102"
       style="fill:#ffffff;fill-opacity:1" />
    <path
       d="m 8593,3054 c -3,-8 10,-31 30,-53 42,-46 51,-72 43,-116 -7,-33 -33,-62 -206,-221 -42,-38 -134,-123 -205,-190 -72,-66 -152,-140 -179,-165 -78,-70 -106,-114 -106,-168 0,-58 16,-89 60,-119 71,-48 167,1 184,94 4,21 17,46 28,55 13,10 19,23 15,32 -5,14 -11,14 -37,5 -33,-11 -45,-30 -55,-89 -13,-86 -118,-97 -139,-14 -13,51 12,80 298,335 88,78 206,189 286,270 107,106 131,170 97,253 -30,69 -100,126 -114,91 z"
       id="path103"
       style="fill:#ffffff;fill-opacity:1" />
    <path
       d="m 6784,3015 c -4,-9 -2,-21 4,-27 15,-15 44,-1 40,19 -4,23 -36,29 -44,8 z"
       id="path104"
       style="fill:#ffffff;fill-opacity:1" />
    <path
       d="m 4053,3005 c -7,-20 2,-29 21,-22 9,4 13,13 10,22 -8,19 -23,19 -31,0 z"
       id="path105"
       style="fill:#ffffff;fill-opacity:1" />
    <path
       d="m 4330,2848 c 0,-134 -9,-319 -16,-326 -1,-2 -47,21 -101,51 -169,94 -637,358 -660,373 -29,18 -49,18 -57,-2 -3,-9 -6,-198 -6,-422 v -405 l -23,21 c -38,36 -97,55 -168,55 -132,0 -243,-88 -274,-215 -6,-22 -4,-28 9,-28 9,0 19,8 22,18 33,111 138,192 249,192 53,0 100,-20 143,-59 41,-38 34,-39 -19,-4 -33,22 -52,27 -102,26 -74,0 -121,-18 -175,-67 -56,-51 -86,-125 -77,-189 8,-65 25,-97 75,-140 129,-110 336,-47 385,117 12,40 15,129 15,468 0,371 2,418 16,418 8,0 61,-26 117,-58 56,-33 170,-96 252,-142 142,-78 377,-210 383,-215 8,-6 13,-225 7,-291 l -7,-75 -34,31 c -38,33 -67,43 -110,38 -26,-3 -23,-6 36,-35 45,-22 71,-42 84,-65 l 19,-33 -34,32 c -59,55 -125,67 -210,38 -70,-25 -131,-88 -149,-156 -8,-28 -15,-39 -25,-35 -19,7 -46,-21 -39,-39 4,-8 17,-15 29,-15 18,0 26,-8 35,-36 28,-84 130,-154 225,-154 59,0 137,34 177,76 60,64 59,59 58,748 0,346 -3,633 -6,638 -3,4 -14,8 -25,8 -18,0 -19,-8 -19,-142 z"
       id="path106"
       style="fill:#ffffff;fill-opacity:1" />
    <path
       d="m 2745,2950 c -4,-6 59,-78 140,-160 158,-161 168,-181 112,-208 -34,-17 -45,-11 -136,77 -64,62 -91,75 -91,43 0,-28 164,-182 194,-182 36,0 71,15 96,42 l 21,23 78,-83 c 72,-77 111,-100 111,-68 0,7 -34,50 -75,95 -77,83 -88,110 -66,164 6,16 12,13 49,-27 41,-45 72,-59 72,-33 0,21 -82,109 -116,123 -18,7 -67,52 -110,99 -43,47 -82,85 -86,85 -5,0 -11,-7 -15,-15 -3,-11 18,-40 64,-88 82,-84 96,-107 87,-143 -6,-25 -13,-19 -153,120 -80,80 -152,146 -158,146 -7,0 -15,-5 -18,-10 z"
       id="path107"
       style="fill:#ffffff;fill-opacity:1" />
    <path
       d="m 8277,2944 c -16,-16 -7,-44 14,-44 15,0 20,5 17,22 -3,22 -19,33 -31,22 z"
       id="path108"
       style="fill:#ffffff;fill-opacity:1" />
    <path
       d="m 1790,2880 c 0,-13 7,-20 20,-20 13,0 20,7 20,20 0,13 -7,20 -20,20 -13,0 -20,-7 -20,-20 z"
       id="path109"
       style="fill:#ffffff;fill-opacity:1" />
    <path
       d="m 6825,2763 c -11,-2 -32,-18 -46,-34 -22,-25 -37,-31 -83,-36 -57,-6 -88,-25 -69,-44 6,-6 39,-11 74,-12 l 64,-2 2,-45 c 3,-65 14,-70 157,-67 l 121,2 3,105 c 4,134 -2,141 -122,139 -44,-1 -90,-3 -101,-6 z m 81,-54 c 6,-10 30,-7 68,7 25,10 20,-35 -6,-64 l -23,-24 25,7 c 22,7 23,6 11,-9 -19,-23 -45,-12 -88,35 -19,21 -42,39 -49,39 -19,0 -18,-54 1,-70 20,-17 19,-32 -2,-28 -21,4 -34,64 -22,97 6,16 17,21 43,21 19,0 38,-5 42,-11 z"
       id="path110"
       style="fill:#ffffff;fill-opacity:1" />
    <path
       d="m 5597,2733 c -4,-3 -7,-15 -7,-25 0,-21 36,-25 43,-5 9,27 -17,50 -36,30 z"
       id="path111"
       style="fill:#ffffff;fill-opacity:1" />
    <path
       d="m 6474,2676 c -3,-9 -12,-12 -21,-9 -11,4 -14,2 -11,-8 5,-15 76,-39 96,-31 6,2 12,17 12,33 0,27 -3,29 -35,29 -22,0 -38,-6 -41,-14 z"
       id="path112"
       style="fill:#ffffff;fill-opacity:1" />
    <path
       d="m 4931,2657 c -14,-17 3,-41 23,-34 9,4 16,13 16,21 0,19 -26,28 -39,13 z"
       id="path113"
       style="fill:#ffffff;fill-opacity:1" />
    <path
       d="m 4610,2645 c 0,-10 7,-15 18,-13 21,4 19,22 -2,26 -10,2 -16,-3 -16,-13 z"
       id="path114"
       style="fill:#ffffff;fill-opacity:1" />
    <path
       d="m 5125,2566 c -41,-18 -65,-56 -72,-116 l -6,-50 h -49 c -60,0 -108,-19 -136,-55 -20,-25 -22,-40 -22,-145 v -117 l -27,-6 c -30,-6 -63,-52 -56,-77 14,-42 75,-53 111,-20 20,19 22,30 22,150 v 130 h 115 115 v -90 c 0,-80 -2,-90 -18,-90 -29,0 -62,-38 -62,-70 0,-22 7,-33 29,-45 31,-16 54,-12 84,13 15,13 17,34 17,149 v 133 h 109 c 127,0 122,5 120,-108 -1,-64 -3,-72 -20,-72 -45,0 -78,-77 -47,-108 7,-7 29,-12 50,-12 63,0 70,21 66,204 -3,149 -4,155 -28,181 -44,48 -70,55 -193,55 h -115 l -1,55 c 0,47 3,57 23,70 38,25 58,10 55,-44 -2,-25 0,-45 4,-43 4,1 14,2 22,2 21,0 37,37 30,71 -11,49 -71,76 -120,55 z m 241,-233 c 17,-17 12,-18 -104,-21 -67,-1 -177,-1 -244,0 -116,3 -121,4 -104,21 15,15 41,17 226,17 185,0 211,-2 226,-17 z"
       id="path115"
       style="fill:#ffffff;fill-opacity:1" />
    <path
       d="m 5586,2434 c -9,-23 -8,-24 14,-24 13,0 20,7 20,20 0,24 -25,27 -34,4 z"
       id="path116"
       style="fill:#ffffff;fill-opacity:1" />
    <path
       d="m 7007,2416 c -3,-8 1,-20 9,-27 12,-10 18,-9 31,3 8,9 12,21 9,27 -10,16 -43,14 -49,-3 z"
       id="path117"
       style="fill:#ffffff;fill-opacity:1" />
    <path
       d="m 7747,2422 c -23,-5 -18,-36 6,-40 19,-4 35,25 21,37 -5,4 -17,6 -27,3 z"
       id="path118"
       style="fill:#ffffff;fill-opacity:1" />
    <path
       d="m 3106,2404 c -4,-9 -4,-19 -2,-21 8,-8 26,8 26,23 0,19 -16,18 -24,-2 z"
       id="path119"
       style="fill:#ffffff;fill-opacity:1" />
    <path
       d="m 4598,2358 c -8,-21 2,-38 22,-38 19,0 30,17 23,38 -3,6 -13,12 -23,12 -10,0 -20,-6 -22,-12 z"
       id="path120"
       style="fill:#ffffff;fill-opacity:1" />
    <path
       d="m 3827,2344 c -13,-14 -7,-53 11,-63 13,-8 4,-10 -38,-11 -63,0 -86,-11 -77,-34 6,-14 25,-16 144,-14 130,3 138,4 138,23 0,17 -8,21 -54,25 -51,5 -54,7 -65,40 -11,34 -41,51 -59,34 z"
       id="path121"
       style="fill:#ffffff;fill-opacity:1" />
    <path
       d="m 6576,2295 c -44,-41 -34,-114 21,-143 35,-19 63,-14 94,17 83,83 -29,206 -115,126 z m 88,-34 c 19,-21 13,-47 -15,-61 -27,-15 -38,-12 -50,14 -23,50 28,88 65,47 z"
       id="path122"
       style="fill:#ffffff;fill-opacity:1" />
    <path
       d="m 2524,2241 c -65,-40 -84,-112 -43,-165 24,-31 47,-33 81,-7 l 24,20 38,-44 c 20,-24 47,-47 59,-51 28,-8 37,-22 37,-55 0,-30 23,-44 40,-25 15,19 3,198 -17,254 -28,80 -144,118 -219,73 z m 135,-36 c 33,-16 61,-77 61,-130 0,-57 -38,-41 -93,39 -23,34 -61,34 -83,1 -13,-20 -19,-23 -30,-14 -25,20 -17,65 17,93 35,30 84,34 128,11 z"
       id="path123"
       style="fill:#ffffff;fill-opacity:1" />
    <path
       d="m 2201,2236 c -16,-19 -6,-36 20,-36 15,0 20,6 17,22 -4,27 -21,33 -37,14 z"
       id="path124"
       style="fill:#ffffff;fill-opacity:1" />
    <path
       d="m 7667,2113 c -4,-3 -7,-17 -7,-30 0,-26 21,-31 40,-8 18,22 -13,58 -33,38 z"
       id="path125"
       style="fill:#ffffff;fill-opacity:1" />
    <path
       d="m 5660,2021 c 0,-10 7,-24 16,-31 12,-11 18,-10 31,3 21,21 9,47 -22,47 -18,0 -25,-5 -25,-19 z"
       id="path126"
       style="fill:#ffffff;fill-opacity:1" />
    <path
       d="m 6622,1918 c -20,-20 -14,-38 12,-38 27,0 40,22 23,39 -14,14 -20,14 -35,-1 z"
       id="path127"
       style="fill:#ffffff;fill-opacity:1" />
    <path
       d="m 2817,1893 c -12,-11 -8,-51 6,-56 19,-7 47,12 47,32 0,24 -37,41 -53,24 z"
       id="path128"
       style="fill:#ffffff;fill-opacity:1" />
    <path
       d="m 7800,1815 c -13,-13 -26,-22 -30,-20 -12,8 -18,-17 -13,-52 4,-23 11,-33 23,-33 10,0 20,-7 24,-15 6,-17 36,-21 36,-5 0,6 10,14 21,19 15,5 23,18 25,39 2,18 0,32 -5,32 -5,0 -13,9 -16,20 -11,36 -39,42 -65,15 z"
       id="path129"
       style="fill:#ffffff;fill-opacity:1" />
    <path
       d="m 2507,1804 c -9,-10 4,-34 19,-34 8,0 14,9 14,20 0,19 -19,27 -33,14 z"
       id="path130"
       style="fill:#ffffff;fill-opacity:1" />
    <path
       d="m 5731,1652 c -1,-8 -6,-10 -13,-6 -10,5 -10,4 -1,-6 15,-16 28,-8 20,12 -4,11 -6,11 -6,0 z"
       id="path131"
       style="fill:#ffffff;fill-opacity:1" />
    <path
       d="m 6735,1598 c -2,-13 -6,-36 -7,-53 -3,-25 -8,-31 -33,-35 -21,-4 -31,-12 -33,-26 -3,-18 4,-22 44,-28 66,-9 67,-6 65,102 -1,47 -4,62 -16,62 -8,0 -17,-10 -20,-22 z"
       id="path132"
       style="fill:#ffffff;fill-opacity:1" />
    <path
       d="m 3723,1478 c -90,-98 -82,-194 20,-233 33,-13 49,-14 71,-5 27,10 28,13 22,51 -6,35 -3,45 24,77 16,20 30,44 30,53 0,10 -25,27 -68,48 -38,17 -71,31 -74,31 -2,0 -14,-10 -25,-22 z m 94,-64 c 2,-7 -10,-17 -28,-23 -31,-11 -32,-12 -26,-61 l 6,-50 -24,16 c -15,10 -25,26 -25,39 0,30 18,77 33,87 17,11 60,5 64,-8 z"
       id="path133"
       style="fill:#ffffff;fill-opacity:1" />
    <path
       d="m 7501,1391 c -15,-10 -8,-41 9,-41 15,0 25,29 14,40 -5,5 -15,5 -23,1 z"
       id="path134"
       style="fill:#ffffff;fill-opacity:1" />
    <path
       d="m 3250,1356 c 0,-8 5,-18 10,-21 13,-8 42,14 34,26 -9,15 -44,10 -44,-5 z"
       id="path135"
       style="fill:#ffffff;fill-opacity:1" />
    <path
       d="m 6982,1343 c -30,-16 -67,-39 -82,-53 l -29,-25 24,-59 c 42,-101 69,-116 123,-71 17,14 35,25 41,25 30,0 71,31 71,54 0,32 -62,150 -80,154 -8,1 -39,-10 -68,-25 z"
       id="path136"
       style="fill:#ffffff;fill-opacity:1" />
    <path
       d="m 4116,1189 c -62,-49 -8,-162 68,-143 66,16 89,92 41,139 -30,31 -73,32 -109,4 z m 88,-41 c 8,-14 6,-22 -11,-39 -37,-38 -83,2 -47,42 20,23 42,22 58,-3 z"
       id="path137"
       style="fill:#ffffff;fill-opacity:1" />
    <path
       d="m 6655,1010 c -3,-5 -1,-10 4,-10 6,0 11,5 11,10 0,6 -2,10 -4,10 -3,0 -8,-4 -11,-10 z"
       id="path138"
       style="fill:#ffffff;fill-opacity:1" />
  </g>
</svg>
